/* XPM */
static char *_4410ff5489447298966e41e7b0855d2rEOt5oKdKwVBJXcv[] = {
/* columns rows colors chars-per-pixel */
"63 64 133 2 ",
"   c none",
".  c #312F2C",
"X  c #2E312D",
"o  c #313027",
"O  c #34322E",
"+  c #39342D",
"@  c #2B2D30",
"#  c #332F30",
"$  c #333131",
"%  c #55442E",
"&  c #59462E",
"*  c #6C4F2C",
"=  c #6F522F",
"-  c #75532E",
";  c #7F592E",
":  c #744F30",
">  c #6F5230",
",  c #745330",
"<  c #845B2E",
"1  c #8B5E2E",
"2  c #8A612F",
"3  c #90622F",
"4  c #99662F",
"5  c #8D6031",
"6  c #926433",
"7  c #9C6732",
"8  c #9F6931",
"9  c #A06730",
"0  c #A46B31",
"q  c #AB6E32",
"w  c #AC7132",
"e  c #B57432",
"r  c #BA7633",
"t  c #B27A33",
"y  c #BB7C35",
"u  c #C56627",
"i  c #C66728",
"p  c #C96729",
"a  c #C56928",
"s  c #CE792E",
"d  c #D1742D",
"f  c #D07B2F",
"g  c #D47E31",
"h  c #DA7E31",
"j  c #BE8134",
"k  c #C38135",
"l  c #D48232",
"z  c #DD8133",
"x  c #D78935",
"c  c #DA8C36",
"v  c #D28E3A",
"b  c #DB8E39",
"n  c #DC9237",
"m  c #D6913A",
"M  c #DC9239",
"N  c #E28635",
"B  c #E68B36",
"V  c #E38C36",
"C  c #E58C36",
"Z  c #E78E36",
"A  c #E98B37",
"S  c #E88F37",
"D  c #EB8E37",
"F  c #E68D38",
"G  c #E48F38",
"H  c #EA8E38",
"J  c #EB8F38",
"K  c #E69739",
"L  c #E7973A",
"P  c #E9963A",
"I  c #E9973B",
"U  c #E29A3B",
"Y  c #E59C3C",
"T  c #E9983B",
"R  c #E99D3D",
"E  c #E7A23E",
"W  c #E7A53F",
"Q  c #EAA03D",
"!  c #EAA13E",
"~  c #ECA33F",
"^  c #EBA43E",
"/  c #ECA43F",
"(  c #D79344",
")  c #DA9545",
"_  c #D4964F",
"`  c #D8994F",
"'  c #D49450",
"]  c #D69950",
"[  c #DDA859",
"{  c #E4A345",
"}  c #EAA140",
"|  c #EAA541",
" . c #EAA740",
".. c #ECA741",
"X. c #E9A940",
"o. c #EBAB41",
"O. c #EAA842",
"+. c #ECAB41",
"@. c #ECAB43",
"#. c #EBAC41",
"$. c #EBAD41",
"%. c #E8AD42",
"&. c #EDAC41",
"*. c #ECAC42",
"=. c #EEB54B",
"-. c #EEBA4F",
";. c #EAB253",
":. c #EFBD52",
">. c #F0BD51",
",. c #DDAF64",
"<. c #E0AC64",
"1. c #E2B366",
"2. c #E1B66B",
"3. c #E4B96A",
"4. c #EFC054",
"5. c #F0C154",
"6. c #F2C65A",
"7. c #F3CC5F",
"8. c #EEC762",
"9. c #EECD62",
"0. c #E6C16C",
"q. c #F3CC60",
"w. c #F4D56F",
"e. c #E6C777",
"r. c #F3D673",
"t. c #F4D976",
"y. c #F3DA78",
"u. c #F6DF83",
"i. c #F6E183",
"p. c #F8EB97",
"a. c #F6ED99",
"s. c #F9ED99",
"d. c #FAF099",
/* pixels */
"                                                                                                                              ",
"                                                                                                                              ",
"                                                                                                                              ",
"                                                                                                                              ",
"                                                                                                                              ",
"                                                                                                                              ",
"                                                                                                                              ",
"                                                                                                                              ",
"                                                                                                                              ",
"                                                          +     + o + +   +                                                   ",
"                                                  1 e r r e e e e r e e e e w &                                               ",
"                                                + e D Z A D D D D S F J Z Z V >                                               ",
"                                          1 e e e m | } } | ~ | ^ ! ! / ! ^ E k e e w &                                       ",
"                                        + e Z A D ! *.+.#.+.+.+.*.*.*.*.#.#.o.K C Z N >                                       ",
"                                    # 1 w M } }  . .#.o.o.o.+.+.#.*.#.*.#.+.o.! R ! ! k q &                                   ",
"                                    + e K ^ o.o.o.o. .o.o. .o.~ o.| +.| o.o. .+.#.o.+.P C ,                                   ",
"                              5 w 0 w m ! +.+.o.^ x f f f f f f s g s g g s g U +.+.+.} ! j q w q &                           ",
"                            + r Z K D ~ *.#.#. .| f a a a u u u u u u u i i i M  .+.+.+.+.P Z F C -                           ",
"                          2 w m ! ! ! +.| o.o.x f l h h z h h h h h h h h h h g g U +.+.+.! } R R k 0 &                       ",
"                        o r Z ^ o.*.*.#.*.o. .s p h A B A C D C C C C C C Z C d i M +.+.o.#.o.o. .P A :                       ",
"                          e F ! +.+.+.o.#.x g g h N B B B B B B C A C B C P ! c h g g U o.o.o. .+.T V ,                       ",
"                        $ e D } +.o.+.o.^ s i z A B A B B B B A C A B B Z R +.P A d i M o.o.o.o.| T V ,                       ",
"                      < q m R +. .+. .x g h h N A B B B B B B B B A C Y !  .+.! R c h l l U o.+.o.^ ! y 7 %                   ",
"                    + r J ~ +.+.@.+. .s a z A C B B A B B B B B B B B R +.+.+.+.+.P C d i M o.o.#.#.#.R C -                   ",
"                # < 0 b R  .o.*. .x l h h B B B B B B A C C B B B P R ^ *.+.+.+.+.} R { { b l U o.o.o.! R y 9 &               ",
"                + r J } o.o.o.o. .s i z A B B B B B B B A A A B F R +.+.*.+.+.+.+.+.+.5.q.v i m +.o.+.o.+.P D -               ",
"                + r J } o.o.o.x l h h N B B B B B B B B C C Z P R | *.+.o.+.+.+.+.+.+.5.q.0.2.) g Y +.o.+.K A -               ",
"                $ r J } o.#.^ s i z F C B A B B B B B B C C Z ~ *.+.*.+.o.+.+.+.+.+.+.5.q.i.a.] i M o.o.+.P C ,               ",
"                + r D ! +.o.o.s i z A C B B B A B B C C C P ! / o.+.+.+.+.+.+.o.+.=.>.6.7.i.p.` i n +.+.o.P C -               ",
"                + r D ~ +.o.W s i z C C B B B B B B C C Z R *.+.@.+.+.+.o.+.+.o.+.5.q.q.q.i.p.` u M +.+.o.K C -               ",
"                + r J | +.+.o.s i z Z C B B B B B N B P R ~ +.+.o.+.+.+.@.o.o.=.>.6.q.7.q.u.s.` u M +.+.+.R N ,               ",
"                $ r D ^ +.+.W s i z C C B B B B B B B R +.+.+.| o.+.o.o.o.o.#.:.q.7.7.7.7.i.s.` u M @.+.+.T N *               ",
"                + r D ! o.o. .s u z B B A A A N C T R | +.+.o.+.o.+.o.o.o.=.:.6.7.7.7.7.7.i.s.` u F #.| #.R D -               ",
"                  r D ! o. . .s u h B B C C C C F R +.+.@.+.+.+.o.o.+.o. .5.q.q.7.7.7.7.q.i.s.` u n #.#.! R C -               ",
"                + r J ! o.@. .g u B B B B B Z K R  .+.+.+.+.+.+.o.+.@.=.:.6.q.q.7.7.7.7.q.i.s.` a M #. .+.P A -               ",
"                + r J } o. .#.d u h B B A A C ! +.+.+.+.+.+.+.+.o.+.o.5.q.7.q.q.7.q.q.7.q.u.s.` u M #.#.~ P A -               ",
"                  r D } +.o.^ s u h A A D P R  .+.+.+.| +.+.+.+./ =.>.6.q.q.q.7.7.7.7.q.q.u.p.` u M #.#.$.! C -               ",
"                  r D ! +.+.} s u B A A F ! o.o.+.+.+.+.o.o.+.+.#.5.7.7.q.7.q.q.q.q.7.q.q.i.a.` u n #.#.*.T C -               ",
"                  r Z ! o.o.+.n x g h N F ! +.+.+.+.+.+.+.@.o.=.4.6.q.7.7.7.q.q.7.7.9.r.y.3.<.( x W / #./ T S -               ",
"                $ r D ^ o.o.o.*.| s u h A } @.+.+.+.+.+.+.o. .:.7.7.q.7.q.7.q.q.7.7.9.i.a.] u M W / / #.#.R Z -               ",
"                  - 6 m R ! / *. .b x g h P R  .o.o.o.o.o.=.:.6.7.q.q.7.q.q.q.q.q.r.y.3.,.) x U o.o.+.E U t 5 +               ",
"                    o r K ^ *.*.+.+.| s u h J R o.o.o.o.O.>.q.q.7.7.7.q.q.q.7.q.7.i.a._ i M +.o.o.o.+.K Z -                   ",
"                    $ , 4 v R | +.o. .b g g h Y o.o.o.=.:.6.q.q.q.q.7.7.7.6.q.w.y.0.1.( l U o.o.o.R Y t 2 %                   ",
"                        o y A R +.o.o.+. .s i U @.o.@.:.q.q.q.q.7.7.7.7.7.7.9.i.a.' a M o.+.+. .+.K N =   o                   ",
"                        $ e J  .+.+.o.@.o.b l x m ;.8.r.t.t.t.y.y.t.t.t.t.t.r.0.2.( l U @.*.o.o.o.K B :                       ",
"                        $ r J ^ @.+.o.@.o. . .f a e.s.d.d.s.s.s.d.d.d.d.s.s.p._ u M +.+.+.+.+.+.o.P C -                       ",
"                          ; 0 m } R R  .o.o. .b l [ 2.2.3.3.3.3.3.3.3.3.3.3.3.( l U o.+.@.} R R Y y 7 %                       ",
"                              e J A J } @.o.#.o.o.g p a p p i i p i a u i i a n o.o.o.+.+.P Z C N :                           ",
"                              < 9 9 0 m ! / *.*.*.b l l l l g l l l l l f x l E #.#./ / R t 9 9 7 &                           ",
"                                      e D ^ #.^ / *.W #.#.o.#.o.W / / *.W W o.W *.#.W T A -                                   ",
"                                      < w m ^ R R o.*.#.o. .o.o.#.#./ #.*.*.#.^ / ! Y y 9 &                                   ",
"                                          e D D F  .o.o.#.o.o.#.#.#.*.*.#.W W P D Z N =                                       ",
"                                          1 q q q m ! E ! ! ! ! / ! ! ! E ! Y y 0 0 0 &                                       ",
"                                                  w J F D D D D J J J S D J N >   o o                                         ",
"                                                  < q q q q q q q q w w q q 0 &                                               ",
"                                                  o         $   $     o X   o                                                 ",
"                                                                                                                              ",
"                                                                                                                              ",
"                                                                                                                              ",
"                                                                                                                              ",
"                                                                                                                              ",
"                                                                                                                              ",
"                                                                                                                              ",
"                                                                                                                              "
};
