/* XPM */
static char *_3808d98bffd4d2dce4593bec05c64d06vzKu6m5flXYKhSz[] = {
/* columns rows colors chars-per-pixel */
"64 64 6 1 ",
"  c None",
". c #060608",
"X c #683E2C",
"o c #3A5124",
"O c #7E4C35",
"+ c #4B692F",
/* pixels */
"                                                                ",
"                                                                ",
"                                                                ",
"                                                                ",
"                        ....................                    ",
"                        ....................                    ",
"                        ....................                    ",
"                        ....................                    ",
"                    ....XXXXOOOOOOOOOOOOXXXX....                ",
"                    ....XXXXOOOOOOOOOOOOXXXX....                ",
"                    ....XXXXOOOOOOOOOOOOXXXX....                ",
"                    ....XXXXOOOOOOOOOOOOXXXX....                ",
"        ............XXXXOOOOOOOOOOOOOOOOOOOOXXXX............    ",
"        ............XXXXOOOOOOOOOOOOOOOOOOOOXXXX............    ",
"        ............XXXXOOOOOOOOOOOOOOOOOOOOXXXX............    ",
"        ............XXXXOOOOOOOOOOOOOOOOOOOOXXXX............    ",
"        ....oooo++++++++OOOOOOOOOOOOOOOOOOOOOOOO++++oooo....    ",
"        ....oooo++++++++OOOOOOOOOOOOOOOOOOOOOOOO++++oooo....    ",
"        ....oooo++++++++OOOOOOOOOOOOOOOOOOOOOOOO++++oooo....    ",
"        ....oooo++++++++OOOOOOOOOOOOOOOOOOOOOOOO++++oooo....    ",
"            ....oooo++++OOOOoooooooooooooooooooooooo....        ",
"            ....oooo++++OOOOoooooooooooooooooooooooo....        ",
"            ....oooo++++OOOOoooooooooooooooooooooooo....        ",
"            ....oooo++++OOOOoooooooooooooooooooooooo....        ",
"            ....XXXX++++XXXXoooooooooooooooooooo....            ",
"            ....XXXX++++XXXXoooooooooooooooooooo....            ",
"            ....XXXX++++XXXXoooooooooooooooooooo....            ",
"            ....XXXX++++XXXXoooooooooooooooooooo....            ",
"            ....XXXXoooooooo++++....++++++++........            ",
"            ....XXXXoooooooo++++....++++++++........            ",
"            ....XXXXoooooooo++++....++++++++........            ",
"            ....XXXXoooooooo++++....++++++++........            ",
"            ....XXXXXXXXoooo++++++++++++++++++++....            ",
"            ....XXXXXXXXoooo++++++++++++++++++++....            ",
"            ....XXXXXXXXoooo++++++++++++++++++++....            ",
"            ....XXXXXXXXoooo++++++++++++++++++++....            ",
"                ....XXXXoooo++++++++++++++++++++....            ",
"                ....XXXXoooo++++++++++++++++++++....            ",
"                ....XXXXoooo++++++++++++++++++++....            ",
"                ....XXXXoooo++++++++++++++++++++....            ",
"                    ....oooo++++++++++++++++++++....            ",
"                    ....oooo++++++++++++++++++++....            ",
"                    ....oooo++++++++++++++++++++....            ",
"                    ....oooo++++++++++++++++++++....            ",
"                    ....oooooooo............oooo....            ",
"                    ....oooooooo............oooo....            ",
"                    ....oooooooo............oooo....            ",
"                    ....oooooooo............oooo....            ",
"                    ....oooo....    ....oooo....                ",
"                    ....oooo....    ....oooo....                ",
"                    ....oooo....    ....oooo....                ",
"                    ....oooo....    ....oooo....                ",
"                    ........        ........                    ",
"                    ........        ........                    ",
"                    ........        ........                    ",
"                    ........        ........                    ",
"                                                                ",
"                                                                ",
"                                                                ",
"                                                                ",
"                                                                ",
"                                                                ",
"                                                                ",
"                                                                "
};
