/* XPM */
static char *a22c5ed603644db9f0cd8109ee7dcd7d1IpxMeHFooByM18R[] = {
/* columns rows colors chars-per-pixel */
"64 64 4 1 ",
"  c #353E50",
". c #434F65",
"X c #5A6988",
"o c #6F7F9F",
/* pixels */
"....                            ....                            ",
"....                            ....                            ",
"....                            ....                            ",
"....                            ....                            ",
"....oooooooooooooooooooooooooooo....oooooooooooooooooooooooooooo",
"....oooooooooooooooooooooooooooo....oooooooooooooooooooooooooooo",
"....oooooooooooooooooooooooooooo....oooooooooooooooooooooooooooo",
"....oooooooooooooooooooooooooooo....oooooooooooooooooooooooooooo",
"....ooooXXXXXXXXXXXXXXXXXXXXoooo....ooooXXXXXXXXXXXXXXXXXXXXoooo",
"....ooooXXXXXXXXXXXXXXXXXXXXoooo....ooooXXXXXXXXXXXXXXXXXXXXoooo",
"....ooooXXXXXXXXXXXXXXXXXXXXoooo....ooooXXXXXXXXXXXXXXXXXXXXoooo",
"....ooooXXXXXXXXXXXXXXXXXXXXoooo....ooooXXXXXXXXXXXXXXXXXXXXoooo",
"                ....                            ....            ",
"                ....                            ....            ",
"                ....                            ....            ",
"                ....                            ....            ",
"oooooooooooooooo....oooooooooooooooooooooooooooo....oooooooooooo",
"oooooooooooooooo....oooooooooooooooooooooooooooo....oooooooooooo",
"oooooooooooooooo....oooooooooooooooooooooooooooo....oooooooooooo",
"oooooooooooooooo....oooooooooooooooooooooooooooo....oooooooooooo",
"XXXXXXXXXXXXoooo....ooooXXXXXXXXXXXXXXXXXXXXoooo....ooooXXXXXXXX",
"XXXXXXXXXXXXoooo....ooooXXXXXXXXXXXXXXXXXXXXoooo....ooooXXXXXXXX",
"XXXXXXXXXXXXoooo....ooooXXXXXXXXXXXXXXXXXXXXoooo....ooooXXXXXXXX",
"XXXXXXXXXXXXoooo....ooooXXXXXXXXXXXXXXXXXXXXoooo....ooooXXXXXXXX",
"XXXXXXXXXXXXXXXX........XXXXXXXXXXXXXXXXXXXXXXXX....XXXXXXXXXXXX",
"XXXXXXXXXXXXXXXX........XXXXXXXXXXXXXXXXXXXXXXXX....XXXXXXXXXXXX",
"XXXXXXXXXXXXXXXX........XXXXXXXXXXXXXXXXXXXXXXXX....XXXXXXXXXXXX",
"XXXXXXXXXXXXXXXX........XXXXXXXXXXXXXXXXXXXXXXXX....XXXXXXXXXXXX",
"....                            ....                            ",
"....                            ....                            ",
"....                            ....                            ",
"....                            ....                            ",
"....oooooooooooooooooooooooooooo....oooooooooooooooooooooooooooo",
"....oooooooooooooooooooooooooooo....oooooooooooooooooooooooooooo",
"....oooooooooooooooooooooooooooo....oooooooooooooooooooooooooooo",
"....oooooooooooooooooooooooooooo....oooooooooooooooooooooooooooo",
"....ooooXXXXXXXXXXXXXXXXXXXXoooo....ooooXXXXXXXXXXXXXXXXXXXXoooo",
"....ooooXXXXXXXXXXXXXXXXXXXXoooo....ooooXXXXXXXXXXXXXXXXXXXXoooo",
"....ooooXXXXXXXXXXXXXXXXXXXXoooo....ooooXXXXXXXXXXXXXXXXXXXXoooo",
"....ooooXXXXXXXXXXXXXXXXXXXXoooo....ooooXXXXXXXXXXXXXXXXXXXXoooo",
"....XXXXXXXX....XXXXXXXXXXXXXXXX....XXXXXXXXXXXXXXXXXXXXXXXXXXXX",
"....XXXXXXXX....XXXXXXXXXXXXXXXX....XXXXXXXXXXXXXXXXXXXXXXXXXXXX",
"....XXXXXXXX....XXXXXXXXXXXXXXXX....XXXXXXXXXXXXXXXXXXXXXXXXXXXX",
"....XXXXXXXX....XXXXXXXXXXXXXXXX....XXXXXXXXXXXXXXXXXXXXXXXXXXXX",
"                ....                            ....            ",
"                ....                            ....            ",
"                ....                            ....            ",
"                ....                            ....            ",
"oooooooooooooooo....oooooooooooooooooooooooooooo....oooooooooooo",
"oooooooooooooooo....oooooooooooooooooooooooooooo....oooooooooooo",
"oooooooooooooooo....oooooooooooooooooooooooooooo....oooooooooooo",
"oooooooooooooooo....oooooooooooooooooooooooooooo....oooooooooooo",
"XXXXXXXXXXXXoooo....ooooXXXXXXXXXXXXXXXXXXXXoooo....ooooXXXXXXXX",
"XXXXXXXXXXXXoooo....ooooXXXXXXXXXXXXXXXXXXXXoooo....ooooXXXXXXXX",
"XXXXXXXXXXXXoooo....ooooXXXXXXXXXXXXXXXXXXXXoooo....ooooXXXXXXXX",
"XXXXXXXXXXXXoooo....ooooXXXXXXXXXXXXXXXXXXXXoooo....ooooXXXXXXXX",
"XXXXXXXXXXXXXXXX....XXXXXXXXXXXXXXXXXXXXXXXXXXXX....XXXXXXXXXXXX",
"XXXXXXXXXXXXXXXX....XXXXXXXXXXXXXXXXXXXXXXXXXXXX....XXXXXXXXXXXX",
"XXXXXXXXXXXXXXXX....XXXXXXXXXXXXXXXXXXXXXXXXXXXX....XXXXXXXXXXXX",
"XXXXXXXXXXXXXXXX....XXXXXXXXXXXXXXXXXXXXXXXXXXXX....XXXXXXXXXXXX",
"................................................................",
"................................................................",
"................................................................",
"................................................................"
};
