/* XPM */
static char *_a780f4244e7465597fda992735786462gNgHCZWg2NT8ucH[] = {
/* columns rows colors chars-per-pixel */
"64 64 128 2 ",
"   c None",
".  c #3F201B",
"X  c #40211E",
"o  c #432421",
"O  c #442827",
"+  c #4D2A26",
"@  c #522B27",
"#  c #542D29",
"$  c #582E2A",
"%  c #5D322D",
"&  c #432F31",
"*  c #433033",
"=  c #493437",
"-  c #4A363A",
";  c #4C393F",
":  c #60342F",
">  c #653631",
",  c #683732",
"<  c #663934",
"1  c #6C3A35",
"2  c #743D37",
"3  c #783E37",
"4  c #723D38",
"5  c #71423D",
"6  c #79423C",
"7  c #4C424C",
"8  c #4A4C5D",
"9  c #654144",
"0  c #684546",
"q  c #6C4945",
"w  c #624649",
"e  c #6A474B",
"r  c #6C4A4E",
"t  c #744E4A",
"y  c #794F4A",
"u  c #73514D",
"i  c #7A514D",
"p  c #6E4C50",
"a  c #734F52",
"s  c #6C5355",
"d  c #755153",
"f  c #7C5653",
"g  c #7E5855",
"h  c #735A5F",
"j  c #424D63",
"k  c #4D5266",
"l  c #455168",
"z  c #4A566D",
"x  c #545464",
"c  c #5D5A6A",
"v  c #4C5972",
"b  c #525E75",
"n  c #5B5F75",
"m  c #546076",
"M  c #566279",
"N  c #5A667B",
"B  c #5B687D",
"V  c #61606F",
"C  c #65647A",
"Z  c #7C767D",
"A  c #82463F",
"S  c #824740",
"D  c #8C4C45",
"F  c #904F47",
"G  c #9C554D",
"H  c #87595B",
"J  c #885A5C",
"K  c #915F61",
"L  c #847775",
"P  c #857876",
"I  c #8C7D7B",
"U  c #937E7C",
"Y  c #5B6985",
"T  c #646A81",
"R  c #6E6E85",
"E  c #636F8C",
"W  c #62718F",
"Q  c #6D738A",
"!  c #717087",
"~  c #7E7980",
"^  c #75748A",
"/  c #7A768B",
"(  c #7A798D",
")  c #637390",
"_  c #6E7C97",
"`  c #6E7E9E",
"'  c #747D95",
"]  c #6F7FA0",
"[  c #807A81",
"{  c #807F8D",
"}  c #76839C",
"|  c #7B869D",
" . c #6F80A1",
".. c #7081A1",
"X. c #7D89A1",
"o. c #7E8CA9",
"O. c #878084",
"+. c #86818F",
"@. c #998D8B",
"#. c #878290",
"$. c #868B93",
"%. c #898E95",
"&. c #8C8A9A",
"*. c #908D9D",
"=. c #8F9090",
"-. c #939494",
";. c #9E9392",
":. c #90959A",
">. c #A09594",
",. c #848FA6",
"<. c #828FA9",
"1. c #8590A7",
"2. c #8C91A0",
"3. c #8794AF",
"4. c #8895AF",
"5. c #8F99AD",
"6. c #909BAF",
"7. c #8996B0",
"8. c #919DB5",
"9. c #9DA0A0",
"0. c #98A1B2",
"q. c #9AA6BD",
"w. c #9CA8BF",
"e. c #A1A3A2",
"r. c #ABAEAF",
"t. c #B0B3B3",
"y. c #9CA9C0",
"u. c #A1ACC1",
/* pixels */
"                                                                                                                                ",
"                                                                                                                                ",
"                                                                                                                                ",
"                                                                                                                                ",
"                                                                                                                                ",
"                                                                                                                                ",
"                                                                                                                                ",
"                                                                                                                                ",
"                                                    4.4.4.4.4.4.4.7.3.4.7.3.                                                    ",
"                                                    4.3.4.3.7.4.4.4.4.4.4.3.                                                    ",
"                                                    7.7.7.3.4.7.3.7.7.3.7.7.                                                    ",
"                                                    <.4.4.4.4.4.4.4.4.4.3.1.                                                    ",
"                            4.4.3.4.4.3.4.7.7.} b M X.7.4.4.7.3.3.3.3.4.7.| M b } 7.7.4.4.7.4.4.4.4.                            ",
"                            7.4.3.7.4.7.7.7.7.} b m X.8.8.8.8.8.8.8.8.8.8.X.m b } 7.7.4.4.3.3.7.7.3.                            ",
"                            7.3.4.4.4.4.3.7.7.} b N 1.u.w.w.w.w.y.w.u.u.u.4.m b } 7.7.4.3.7.3.4.3.7.                            ",
"                            <.4.4.3.7.4.4.7.7.} b M ,.y.q.q.q.q.q.q.q.q.y.1.m m } 7.7.7.4.4.4.4.3.1.                            ",
"j m } 7.7.7.3.4.4.7.7.} b N X.7.4.3.3.3.3.7.7.} b b _ o.o.o.o.o.o.o.o.o.o.` v b } 7.7.4.3.3.3.3.7.} m b } 7.7.4.4.4.4.7.7.| m j ",
"j m } 7.7.7.7.4.3.7.7.} b b X.8.8.8.8.8.8.8.8.X.b v E ] ` ` ` ` ` ` ` ` ` ) v M X.8.8.8.8.8.8.8.0.o.m m } 7.7.7.3.7.4.7.7.} m j ",
"j m } 7.7.3.3.4.3.7.7.} b N 1.u.u.y.u.w.u.u.u.1.N v ) ] ` ` ` ` ` ` ` ` ` W v M 4.u.w.w.y.u.w.u.u.4.M v } 7.7.3.4.3.7.7.7.} m j ",
"j b } 3.7.7.4.4.7.7.7.} b M ,.w.q.q.q.q.q.w.y.1.N v ) ] ] ` ` ] ` ` `  ...W v N ,.w.q.q.q.q.q.q.q.1.M m } 7.7.4.4.4.3.7.7.} b j ",
"j m } 7.3.3.3.3.3.7.7.} b b _ <.o.o.o.o.o.o.o._ b v E ] ..] ] ] ` ` ` ....) v m ' o.o.o.o.o.o.o.o._ b b } 7.7.3.3.3.3.7.7.} m j ",
"j M X.0.8.8.8.8.8.8.8.X.b v ) ] ` ` ` ` ` ` ` W v b ) ] ....] ] ` ] ......) v v W ` ` ` ` ` ` `  .W v m X.8.8.8.8.8.8.0.8.X.m j ",
"j M 1.u.u.w.y.u.u.u.u.1.N v ) ] ` ` ` ` ` ] ` ) v v _ ......] ] ..........) v v )  .` ` ] ] ] ]  .W v M 1.u.u.u.y.y.w.u.y.4.N j ",
"j M 1.q.w.q.q.q.q.w.y.,.M v ) ..] ` ....] ....W k j n T T T T T T T T T C n k k W ........] ......) v M 1.w.w.q.q.q.q.q.q.1.m j ",
"j v ` o.o.o.o.o.o.o.o._ b v ) ....] ..........E 7 & - ; ; ; ; ; ; ; ; ; ; - & 7 E  ....... .] .. .) v b _ o.o.o.o.o.o.o.o._ v j ",
"j v W  .` ` ` ` _ ] ] E k 8 n T T T T T T T R c = . . . X X X . X X X X X . . - c T T T T T T T T n k k E ] ` ] ` ` ` ` ` W v j ",
"j v W ..] ` ` ` ] ] ] T 7 & - ; ; ; ; ; ; ; ; = O X X X X X X . X . . X X X X O - ; ; ; ; ; ; ; ; - & 7 T  . .] ` ` ` `  .) v j ",
"j v ) ..] ..] ] ]  . .T ; . . X o . X X X X X . X X o o X o o o o o o X o X o X X X X X o . . X X . . ; T  ..... . .`  ...) b j ",
"j b ) ........} ......T ; X . X . o X X X X X o X o X o o X o o o X o o o X o X . X X X X X X X X . . ; T .... .} ........) b j ",
"j z Y ) ) W ) ) ) ) ) n - o X o X o X o o X X o O o o o o o o O o O o o o o o O o o o X o o o o o . o - n ) ) ) ) ) W W ) Y z j ",
"j l z v v v v z v v v 8 & X o X X o o X X X X o + @ O o @ $ # # $ @ $ @ o O + + o X X o X o o X o X . & 8 v v v v v v v v z l j ",
"j z M B N N N N B B B x - o o O O o o o O O O O # # O o # $ $ % % $ $ # o O # # + o O o o o o O o o O - x B N N N N N N B m z j ",
"j b | 6.6.6.6.4.6.6.6.} w @ @ $ # @ o o + # # $ $ # o O # % % $ $ % % # O o $ $ $ # # + O O + $ # @ @ w } 6.6.6.6.5.5.6.8.| n j ",
"j N ,.w.w.q.q.q.q.w.w.&.r $ $ $ $ @ + O % % % % : $ + + $ % % % % % % $ O + $ % : % : # O o $ $ $ $ $ p &.y.q.q.q.q.q.q.w.,.m j ",
"j b ` o.,.o.o.o.,.o.<.^ w $ $ % $ # O O % < 1 1 < > $ % > < < < < < 1 > % % > 1 1 1 1 % + o @ $ $ $ $ w ^ o.o.o.,.o.o.o.o.` b j ",
"j v E ` ` ` ` ` ` `  .T 9 % $ % % $ + + < 1 4 1 4 < : : < 4 4 1 1 4 1 1 : % 1 1 1 1 1 < @ + $ % % % % w R  .] ` ` _ ` ` } W v j ",
"j b W ` ` ` ` ` ` `  .R r : , , , : $ $ , 1 1 1 1 < : : 1 1 1 1 1 4 1 < : : < 1 4 1 1 < $ $ < 1 1 < , e R ] ] ` ` ` ` ] ` ) v j ",
"j v ) ` ] ] ` ] `  .] Q h t t i f y < > , 1 4 1 1 1 : : < 1 4 1 1 1 1 1 : : 1 1 1 1 1 1 % > , 1 1 1 1 p ! ] ..] ` ` ] ]  .W v j ",
"j v W ..} ] ` ` ` ] ] ' [ P P O.@.I q : < 1 1 4 1 < : : < 4 1 1 1 4 1 < : > < 1 4 1 1 1 > % 1 1 1 1 1 r R .. .] ` ] }  ...) v j ",
"j b ) ............] ] } %.-.-.;.r.;.u $ 1 1 1 1 1 1 : : < 1 4 1 1 1 1 1 : % < 4 1 1 1 < : > , 1 1 4 1 a R ................) v j ",
"j b ) ......} ] ] ] ] } $.-.e.r.t.;.u % , 1 1 4 1 1 % : 1 1 4 1 1 1 1 1 : : 1 1 1 1 1 1 : : , 1 2 1 1 p ! ....] ` ........) b j ",
"j z Y ) ) ) ) ) W E ) Q ~ I @.>.>.I q % , 1 1 1 1 1 : : 1 1 1 1 4 1 1 1 : : < 1 1 4 1 1 : : , 4 , 1 , r C ) ) W ) W ) ) ) Y z j ",
"j j v v v v v v v v v x s y f f g t < % 1 1 1 4 4 < : : < 1 1 1 4 1 1 1 : : 1 1 4 1 1 1 : : , 1 1 , 1 9 x v v v v v v z v z l j ",
"j z b B N N N N B B B c 9 1 , 1 , , % > 1 1 1 1 1 < : : 1 1 4 1 1 1 1 < : : < 1 1 1 1 < : > , q i y 5 0 c B B N N N N N N M z j ",
"j b | 6.5.5.5.5.4.8.6.#.i 1 , 1 1 < : : < 1 1 1 1 < : : < 1 4 1 1 1 4 < % > 1 1 1 1 1 < > % , y U U y d #.6.6.4.5.5.5.5.6.| M j ",
"j N ,.y.w.q.q.q.y.y.w.*.f , 1 4 1 < : : 1 1 4 1 4 < : : 1 1 1 1 1 4 1 < : : 1 1 1 4 1 1 > % < g >.>.H d &.y.y.q.q.q.q.y.w.1.M j ",
"j b _ <.o.o.<.o.o.o.o./ a 1 1 1 1 1 % > < 1 1 1 1 1 : : < 4 1 1 1 1 1 1 : : < 1 1 1 1 1 : % < g >.;.i t / o.o.o.o.o.o.<.o.' b j ",
"j v E ` ` ` ` ` ] ] ] R r 1 1 1 1 , : : 1 4 1 1 1 1 : : < 1 4 1 1 4 1 < : : 1 1 1 1 1 1 : % , g ;.;.f r R ] ] ` ` ` ` ` ] W v j ",
"j v ) ] ` ` ` ` ` ] ] R r 1 1 2 1 1 : : 1 1 4 1 1 1 : : 1 1 4 1 4 1 1 1 : % 1 1 1 1 1 1 % % , g >.;.f r R ] ] ` ` ` ` ` ] ) b j ",
"j v ) ] ..` ` ` ` ....! r 1 1 1 1 , : : 1 1 1 1 1 < : : < 1 1 1 1 1 1 < : > < 1 1 1 1 < : % , g ;.>.f r R ..] ] ] ` ` ....W v j ",
"j v ) ] ..` ] ` ` ....! r 1 1 1 1 1 : : < 1 1 1 1 1 : : 1 1 4 1 1 1 1 1 : : 1 1 4 1 2 1 : : , g ;.>.i t R ] ] ] ` ` ` ] ` ) v j ",
"j b ) ..] ..] ] ......! t , 2 1 1 1 : : 1 1 1 4 1 < : : < 1 1 1 1 4 1 1 : : 1 1 1 1 1 , : % , g >.>.f r ! ....] ] ........W b j ",
"j b ) ] ..] ] ] ] ] ] R p 1 1 1 1 , : : 1 4 1 1 4 < : : 1 1 4 1 1 4 1 < : : 1 1 4 1 4 < : % , g >.>.g r R ] ] ] ..] ` ] ..) b j ",
"j z Y ) ) ) ) E ) ) ) C e 1 1 1 1 , : : < 1 1 4 1 < : : 1 1 1 1 1 1 1 1 : : < 1 1 1 1 1 : % , i U U y e C ) ) W W ) ) W ) Y z j ",
"j l z v v v v v v v v x 9 , 1 1 1 < % > 1 1 1 1 1 1 % : < 1 1 1 1 4 1 < : : 1 1 1 1 1 1 : : < 5 i y 5 9 x v v v b z v v v z l j ",
"j z n B B N N N N B B V d t y y f u < % , 1 1 1 4 < > % 1 1 1 4 1 1 1 1 % > < 1 4 1 1 < > % 1 1 1 , 2 0 c B N N N N N N B M z j ",
"j n | 8.6.4.5.5.4.6.6.*.O.P L I @.I q : , 1 1 4 1 1 : > 1 1 1 1 1 4 4 < % : 1 1 1 1 1 < % > 1 1 2 , 1 d +.8.5.5.5.5.5.5.6.| n j ",
"j N ,.y.w.w.q.q.w.w.w.8.:.=.-.9.r.;.r % , 1 1 1 1 < : % < 4 1 4 1 1 1 1 : : 1 1 4 1 4 1 > % 1 1 1 1 1 d *.y.y.q.q.w.q.q.w.1.M j ",
"j v _ <.,.o.o.o.o.o.o.X.=.-.e.r.t.;.u % , 1 1 1 1 1 > % 1 1 1 1 1 4 1 < % > < 1 1 1 1 1 % : 1 1 1 1 1 a ( o.o.o.<.o.o.o.o._ b j ",
"j v W ` ` ` ` ` ` ` ` ' ~ I @.;.;.I q % , 1 4 1 1 < % > < 1 1 1 1 1 1 < : % < 4 1 1 1 1 : : < 1 1 1 1 r R ] ] ` ` ` ` ` ] ) v j ",
"j v W ..` ` ` ` ` ] ` ! h u f f g t < % < 4 1 1 1 , % : , 2 1 1 1 1 1 < : : < 1 1 1 1 , % % 1 1 1 1 1 r ! ` ] ` ` ` ` ` ] ) v j ",
"j v ) }  .` ` ] `  .] R d 4 3 4 4 2 > : 4 6 6 6 t 2 > : 2 q 3 6 6 6 5 4 > : 4 6 6 3 6 4 > > 4 3 6 6 3 i ! ] ] ` ` ` ` ..] ) b j ",
"j v ) ] ] ] } ` `  .` / H F F D D S , < S F F F F S , , S F F F F F F S < < S F F F F y < < A F F F F J ^ ] ..] ] ` ] ] } ) v j ",
"j v ) ] ] ] ] ` `  .` / K G G G G D < 1 D G G G G D 1 , D G G G G G G D 1 1 D G G G G D 1 1 D G G G G K / ....` ] ` ] ] ] ) v j "
};
