/* XPM */
static char *_85e008923714764e5d4ca9957afe15bBi6KD6RCE6reYkXR[] = {
/* columns rows colors chars-per-pixel */
"64 64 7 1 ",
"  c None",
". c #060608",
"X c #AC3232",
"o c #DF7126",
"O c #847E87",
"+ c #9BADB7",
"@ c white",
/* pixels */
"                    ............                                ",
"                    ............                                ",
"                    ............                                ",
"                    ............                                ",
"                    ....XXXXXXXX....                            ",
"                    ....XXXXXXXX....                            ",
"                    ....XXXXXXXX....                            ",
"                    ....XXXXXXXX....                            ",
"                        ....OOOO................                ",
"                        ....OOOO................                ",
"                        ....OOOO................                ",
"                        ....OOOO................                ",
"                    ....OOOOOOOO++++++++++++++++....            ",
"                    ....OOOOOOOO++++++++++++++++....            ",
"                    ....OOOOOOOO++++++++++++++++....            ",
"                    ....OOOOOOOO++++++++++++++++....            ",
"                ....OOOO++++++++++++++++++++++++....            ",
"                ....OOOO++++++++++++++++++++++++....            ",
"                ....OOOO++++++++++++++++++++++++....            ",
"                ....OOOO++++++++++++++++++++++++....            ",
"                ....++++++++@@@@@@@@@@@@@@@@@@@@....            ",
"                ....++++++++@@@@@@@@@@@@@@@@@@@@....            ",
"                ....++++++++@@@@@@@@@@@@@@@@@@@@....            ",
"                ....++++++++@@@@@@@@@@@@@@@@@@@@....            ",
"                ....++++++++@@@@....................            ",
"                ....++++++++@@@@....................            ",
"                ....++++++++@@@@....................            ",
"                ....++++++++@@@@....................            ",
"                ....OOOO++++@@@@@@@@@@@@....@@@@....            ",
"                ....OOOO++++@@@@@@@@@@@@....@@@@....            ",
"                ....OOOO++++@@@@@@@@@@@@....@@@@....            ",
"                ....OOOO++++@@@@@@@@@@@@....@@@@....            ",
"                ........OOOOOOOOXXXXXXXXooooXXXX....            ",
"                ........OOOOOOOOXXXXXXXXooooXXXX....            ",
"                ........OOOOOOOOXXXXXXXXooooXXXX....            ",
"                ........OOOOOOOOXXXXXXXXooooXXXX....            ",
"                    ....XXXXXXXXOOOOOOOOOOOOOOOO....            ",
"                    ....XXXXXXXXOOOOOOOOOOOOOOOO....            ",
"                    ....XXXXXXXXOOOOOOOOOOOOOOOO....            ",
"                    ....XXXXXXXXOOOOOOOOOOOOOOOO....            ",
"                XXXX....OOOOOOOO++++++++++++++++....            ",
"                XXXX....OOOOOOOO++++++++++++++++....            ",
"                XXXX....OOOOOOOO++++++++++++++++....            ",
"                XXXX....OOOOOOOO++++++++++++++++....            ",
"            XXXXXXXX....OOOOOOOO............OOOO....            ",
"            XXXXXXXX....OOOOOOOO............OOOO....            ",
"            XXXXXXXX....OOOOOOOO............OOOO....            ",
"            XXXXXXXX....OOOOOOOO............OOOO....            ",
"            XXXXXXXX....OOOO....XXXX....OOOO....                ",
"            XXXXXXXX....OOOO....XXXX....OOOO....                ",
"            XXXXXXXX....OOOO....XXXX....OOOO....                ",
"            XXXXXXXX....OOOO....XXXX....OOOO....                ",
"                    ........        ........                    ",
"                    ........        ........                    ",
"                    ........        ........                    ",
"                    ........        ........                    ",
"                                                                ",
"                                                                ",
"                                                                ",
"                                                                ",
"                                                                ",
"                                                                ",
"                                                                ",
"                                                                "
};
